<svg xmlns="http://www.w3.org/2000/svg" xmlns:xlink="http://www.w3.org/1999/xlink" width="1080" zoomAndPan="magnify" viewBox="0 0 810 809.999993" height="1080" preserveAspectRatio="xMidYMid meet" version="1.0"><path fill="#00ff99" d="M 405 0 C 181.761719 0 0 181.761719 0 405 C 0 628.238281 181.761719 810 405 810 C 628.238281 810 810 628.238281 810 405 C 810 181.761719 628.238281 0 405 0 Z M 405 73.636719 C 588.441406 73.636719 736.363281 221.558594 736.363281 405 C 736.363281 588.441406 588.441406 736.363281 405 736.363281 C 221.558594 736.363281 73.636719 588.441406 73.636719 405 C 73.636719 221.558594 221.558594 73.636719 405 73.636719 Z M 368.183594 184.089844 L 368.183594 236.226562 C 327.433594 252.550781 294.546875 285.097656 294.546875 331.363281 C 294.546875 391.929688 344.433594 441.816406 405 441.816406 C 425.804688 441.816406 441.816406 457.832031 441.816406 478.636719 C 441.816406 499.441406 425.804688 515.453125 405 515.453125 C 384.195312 515.453125 368.183594 499.441406 368.183594 478.636719 L 294.546875 478.636719 C 294.546875 524.902344 327.433594 557.449219 368.183594 573.773438 L 368.183594 625.910156 L 441.816406 625.910156 L 441.816406 573.773438 C 482.566406 557.449219 515.453125 524.902344 515.453125 478.636719 C 515.453125 418.070312 465.566406 368.183594 405 368.183594 C 384.195312 368.183594 368.183594 352.167969 368.183594 331.363281 C 368.183594 310.558594 384.195312 294.546875 405 294.546875 C 425.804688 294.546875 441.816406 310.558594 441.816406 331.363281 L 515.453125 331.363281 C 515.453125 285.097656 482.566406 252.550781 441.816406 236.226562 L 441.816406 184.089844 Z M 368.183594 184.089844 " fill-opacity="1" fill-rule="nonzero"/></svg>