<svg xmlns="http://www.w3.org/2000/svg" xmlns:xlink="http://www.w3.org/1999/xlink" width="1920" zoomAndPan="magnify" viewBox="0 0 1440 809.999993" height="1080" preserveAspectRatio="xMidYMid meet" version="1.0"><defs><g/><clipPath id="146b7dc173"><path d="M 750.886719 286.703125 L 817.039062 286.703125 L 817.039062 352.855469 L 750.886719 352.855469 Z M 750.886719 286.703125 " clip-rule="nonzero"/></clipPath></defs><rect x="-144" width="1728" fill="#ffffff" y="-80.999999" height="971.999992" fill-opacity="1"/><rect x="-144" width="1728" fill="#ffffff" y="-80.999999" height="971.999992" fill-opacity="1"/><g fill="#1a2526" fill-opacity="1"><g transform="translate(-3.97664, 467.803799)"><g><path d="M 139.859375 0 L 139.453125 -65.421875 L 108.28125 -12.921875 L 86.953125 -12.921875 L 55.78125 -63.171875 L 55.78125 0 L 11.6875 0 L 11.6875 -143.5625 L 51.46875 -143.5625 L 98.234375 -67.0625 L 143.765625 -143.5625 L 183.546875 -143.5625 L 183.953125 0 Z M 139.859375 0 "/></g></g></g><g fill="#1a2526" fill-opacity="1"><g transform="translate(183.442241, 467.803799)"><g><path d="M 69.515625 2.046875 C 57.078125 2.046875 45.898438 -0.445312 35.984375 -5.4375 C 26.078125 -10.425781 18.320312 -17.328125 12.71875 -26.140625 C 7.113281 -34.960938 4.3125 -44.976562 4.3125 -56.1875 C 4.3125 -67.40625 7.113281 -77.421875 12.71875 -86.234375 C 18.320312 -95.054688 26.078125 -101.925781 35.984375 -106.84375 C 45.898438 -111.769531 57.078125 -114.234375 69.515625 -114.234375 C 82.097656 -114.234375 93.34375 -111.769531 103.25 -106.84375 C 113.164062 -101.925781 120.890625 -95.054688 126.421875 -86.234375 C 131.960938 -77.421875 134.734375 -67.40625 134.734375 -56.1875 C 134.734375 -44.976562 131.960938 -34.960938 126.421875 -26.140625 C 120.890625 -17.328125 113.164062 -10.425781 103.25 -5.4375 C 93.34375 -0.445312 82.097656 2.046875 69.515625 2.046875 Z M 69.515625 -34.046875 C 74.847656 -34.046875 79.222656 -35.992188 82.640625 -39.890625 C 86.066406 -43.785156 87.78125 -49.21875 87.78125 -56.1875 C 87.78125 -63.164062 86.066406 -68.566406 82.640625 -72.390625 C 79.222656 -76.222656 74.847656 -78.140625 69.515625 -78.140625 C 64.191406 -78.140625 59.816406 -76.222656 56.390625 -72.390625 C 52.972656 -68.566406 51.265625 -63.164062 51.265625 -56.1875 C 51.265625 -49.21875 52.972656 -43.785156 56.390625 -39.890625 C 59.816406 -35.992188 64.191406 -34.046875 69.515625 -34.046875 Z M 69.515625 -34.046875 "/></g></g></g><g fill="#1a2526" fill-opacity="1"><g transform="translate(314.26589, 467.803799)"><g><path d="M 135.140625 -112.171875 L 90.03125 0 L 42.046875 0 L -3.078125 -112.171875 L 44.5 -112.171875 L 67.0625 -52.09375 L 91.265625 -112.171875 Z M 135.140625 -112.171875 "/></g></g></g><g fill="#1a2526" fill-opacity="1"><g transform="translate(438.11768, 467.803799)"><g><path d="M 129.609375 -56.1875 C 129.609375 -55.507812 129.40625 -51.890625 129 -45.328125 L 51.0625 -45.328125 C 52.707031 -41.085938 55.441406 -37.835938 59.265625 -35.578125 C 63.097656 -33.328125 67.882812 -32.203125 73.625 -32.203125 C 78.539062 -32.203125 82.675781 -32.816406 86.03125 -34.046875 C 89.382812 -35.273438 93.039062 -37.394531 97 -40.40625 L 121.203125 -16 C 110.265625 -3.96875 93.925781 2.046875 72.1875 2.046875 C 58.65625 2.046875 46.757812 -0.445312 36.5 -5.4375 C 26.25 -10.425781 18.320312 -17.363281 12.71875 -26.25 C 7.113281 -35.132812 4.3125 -45.113281 4.3125 -56.1875 C 4.3125 -67.40625 7.078125 -77.421875 12.609375 -86.234375 C 18.148438 -95.054688 25.738281 -101.925781 35.375 -106.84375 C 45.007812 -111.769531 55.84375 -114.234375 67.875 -114.234375 C 79.226562 -114.234375 89.585938 -111.972656 98.953125 -107.453125 C 108.316406 -102.941406 115.765625 -96.3125 121.296875 -87.5625 C 126.835938 -78.8125 129.609375 -68.351562 129.609375 -56.1875 Z M 68.296875 -82.640625 C 63.503906 -82.640625 59.535156 -81.34375 56.390625 -78.75 C 53.253906 -76.15625 51.207031 -72.460938 50.25 -67.671875 L 86.34375 -67.671875 C 85.382812 -72.328125 83.332031 -75.984375 80.1875 -78.640625 C 77.039062 -81.304688 73.078125 -82.640625 68.296875 -82.640625 Z M 68.296875 -82.640625 "/></g></g></g><g fill="#434852" fill-opacity="1"><g transform="translate(563.830217, 467.803799)"><g><path d="M 139.859375 0 L 139.453125 -65.421875 L 108.28125 -12.921875 L 86.953125 -12.921875 L 55.78125 -63.171875 L 55.78125 0 L 11.6875 0 L 11.6875 -143.5625 L 51.46875 -143.5625 L 98.234375 -67.0625 L 143.765625 -143.5625 L 183.546875 -143.5625 L 183.953125 0 Z M 139.859375 0 "/></g></g></g><g fill="#434852" fill-opacity="1"><g transform="translate(751.249098, 467.803799)"><g><path d="M 10.25 -112.171875 L 56.609375 -112.171875 L 56.609375 0 L 10.25 0 Z M 33.421875 -121.203125 C 25.085938 -121.203125 18.351562 -123.421875 13.21875 -127.859375 C 8.09375 -132.304688 5.53125 -137.945312 5.53125 -144.78125 C 5.53125 -151.625 8.09375 -157.265625 13.21875 -161.703125 C 18.351562 -166.148438 25.085938 -168.375 33.421875 -168.375 C 41.898438 -168.375 48.664062 -166.253906 53.71875 -162.015625 C 58.78125 -157.773438 61.3125 -152.304688 61.3125 -145.609375 C 61.3125 -138.492188 58.78125 -132.644531 53.71875 -128.0625 C 48.664062 -123.488281 41.898438 -121.203125 33.421875 -121.203125 Z M 33.421875 -121.203125 "/></g></g></g><g fill="#434852" fill-opacity="1"><g transform="translate(809.893346, 467.803799)"><g><path d="M 88.1875 -114.234375 C 101.988281 -114.234375 113.09375 -110.0625 121.5 -101.71875 C 129.914062 -93.375 134.125 -80.796875 134.125 -63.984375 L 134.125 0 L 87.78125 0 L 87.78125 -55.984375 C 87.78125 -68.835938 83.195312 -75.265625 74.03125 -75.265625 C 68.832031 -75.265625 64.628906 -73.453125 61.421875 -69.828125 C 58.210938 -66.203125 56.609375 -60.492188 56.609375 -52.703125 L 56.609375 0 L 10.25 0 L 10.25 -112.171875 L 54.34375 -112.171875 L 54.34375 -101.109375 C 58.71875 -105.484375 63.773438 -108.765625 69.515625 -110.953125 C 75.265625 -113.140625 81.488281 -114.234375 88.1875 -114.234375 Z M 88.1875 -114.234375 "/></g></g></g><g fill="#434852" fill-opacity="1"><g transform="translate(945.63834, 467.803799)"><g><path d="M 92.90625 -3.890625 C 85.925781 0.0664062 76.421875 2.046875 64.390625 2.046875 C 48.671875 2.046875 36.570312 -1.742188 28.09375 -9.328125 C 19.613281 -16.921875 15.375 -28.304688 15.375 -43.484375 L 15.375 -72.1875 L 0 -72.1875 L 0 -106.03125 L 15.375 -106.03125 L 15.375 -137.40625 L 61.734375 -137.40625 L 61.734375 -106.03125 L 84.703125 -106.03125 L 84.703125 -72.1875 L 61.734375 -72.1875 L 61.734375 -43.890625 C 61.734375 -40.472656 62.617188 -37.804688 64.390625 -35.890625 C 66.171875 -33.972656 68.5 -33.015625 71.375 -33.015625 C 75.332031 -33.015625 78.816406 -34.039062 81.828125 -36.09375 Z M 92.90625 -3.890625 "/></g></g></g><g fill="#00ff99" fill-opacity="1"><g transform="translate(1031.785703, 467.803799)"><g><path d="M 31.171875 2.046875 C 23.378906 2.046875 16.921875 -0.445312 11.796875 -5.4375 C 6.671875 -10.425781 4.109375 -16.816406 4.109375 -24.609375 C 4.109375 -32.398438 6.671875 -38.722656 11.796875 -43.578125 C 16.921875 -48.429688 23.378906 -50.859375 31.171875 -50.859375 C 38.960938 -50.859375 45.421875 -48.429688 50.546875 -43.578125 C 55.679688 -38.722656 58.25 -32.398438 58.25 -24.609375 C 58.25 -16.816406 55.679688 -10.425781 50.546875 -5.4375 C 45.421875 -0.445312 38.960938 2.046875 31.171875 2.046875 Z M 31.171875 2.046875 "/></g></g></g><g fill="#1a2526" fill-opacity="1"><g transform="translate(1085.937074, 467.803799)"><g><path d="M 60.296875 -106.03125 L 84.703125 -106.03125 L 84.703125 -72.1875 L 61.734375 -72.1875 L 61.734375 0 L 15.375 0 L 15.375 -72.1875 L 0 -72.1875 L 0 -106.03125 L 15.375 -106.03125 L 15.375 -106.640625 C 15.375 -121.265625 19.75 -132.847656 28.5 -141.390625 C 37.25 -149.941406 49.554688 -154.21875 65.421875 -154.21875 C 70.617188 -154.21875 75.675781 -153.738281 80.59375 -152.78125 C 85.519531 -151.820312 89.625 -150.457031 92.90625 -148.6875 L 81.828125 -116.484375 C 77.992188 -118.265625 74.507812 -119.15625 71.375 -119.15625 C 67.945312 -119.15625 65.242188 -118.09375 63.265625 -115.96875 C 61.285156 -113.851562 60.296875 -110.609375 60.296875 -106.234375 Z M 60.296875 -106.03125 "/></g></g></g><g fill="#1a2526" fill-opacity="1"><g transform="translate(1165.086844, 467.803799)"><g><path d="M 132.890625 -112.171875 L 132.890625 0 L 88.796875 0 L 88.796875 -10.671875 C 84.691406 -6.429688 79.90625 -3.25 74.4375 -1.125 C 68.96875 0.988281 63.160156 2.046875 57.015625 2.046875 C 42.796875 2.046875 31.378906 -2.289062 22.765625 -10.96875 C 14.148438 -19.65625 9.84375 -32.75 9.84375 -50.25 L 9.84375 -112.171875 L 56.1875 -112.171875 L 56.1875 -58.25 C 56.1875 -50.59375 57.414062 -45.125 59.875 -41.84375 C 62.34375 -38.5625 65.96875 -36.921875 70.75 -36.921875 C 75.257812 -36.921875 79.019531 -38.726562 82.03125 -42.34375 C 85.039062 -45.96875 86.546875 -51.675781 86.546875 -59.46875 L 86.546875 -112.171875 Z M 132.890625 -112.171875 "/></g></g></g><g fill="#1a2526" fill-opacity="1"><g transform="translate(1300.011614, 467.803799)"><g><path d="M 88.1875 -114.234375 C 101.988281 -114.234375 113.09375 -110.0625 121.5 -101.71875 C 129.914062 -93.375 134.125 -80.796875 134.125 -63.984375 L 134.125 0 L 87.78125 0 L 87.78125 -55.984375 C 87.78125 -68.835938 83.195312 -75.265625 74.03125 -75.265625 C 68.832031 -75.265625 64.628906 -73.453125 61.421875 -69.828125 C 58.210938 -66.203125 56.609375 -60.492188 56.609375 -52.703125 L 56.609375 0 L 10.25 0 L 10.25 -112.171875 L 54.34375 -112.171875 L 54.34375 -101.109375 C 58.71875 -105.484375 63.773438 -108.765625 69.515625 -110.953125 C 75.265625 -113.140625 81.488281 -114.234375 88.1875 -114.234375 Z M 88.1875 -114.234375 "/></g></g></g><g clip-path="url(#146b7dc173)"><path fill="#ffffff" d="M 750.886719 286.703125 L 817.039062 286.703125 L 817.039062 352.855469 L 750.886719 352.855469 Z M 750.886719 286.703125 " fill-opacity="1" fill-rule="nonzero"/></g></svg>