<svg xmlns="http://www.w3.org/2000/svg" xmlns:xlink="http://www.w3.org/1999/xlink" width="1080" zoomAndPan="magnify" viewBox="0 0 810 809.999993" height="1080" preserveAspectRatio="xMidYMid meet" version="1.0"><defs><clipPath id="3004f6202a"><path d="M 5 7.875 L 577 7.875 L 577 579 L 5 579 Z M 5 7.875 " clip-rule="nonzero"/></clipPath><clipPath id="bb880c11a7"><path d="M 553 555 L 800 555 L 800 802.125 L 553 802.125 Z M 553 555 " clip-rule="nonzero"/></clipPath></defs><g clip-path="url(#3004f6202a)"><path fill="#434852" d="M 291.023438 7.925781 C 133.617188 7.925781 5.574219 135.972656 5.574219 293.375 C 5.574219 450.78125 133.617188 578.824219 291.023438 578.824219 C 448.429688 578.824219 576.472656 450.78125 576.472656 293.375 C 576.472656 135.972656 448.429688 7.925781 291.023438 7.925781 Z M 291.023438 533.964844 C 158.363281 533.964844 50.433594 426.035156 50.433594 293.375 C 50.433594 160.714844 158.363281 52.785156 291.023438 52.785156 C 423.683594 52.785156 531.613281 160.714844 531.613281 293.375 C 531.613281 426.035156 423.683594 533.964844 291.023438 533.964844 Z M 291.023438 533.964844 " fill-opacity="1" fill-rule="nonzero"/></g><path fill="#434852" d="M 577 539.351562 L 526.613281 488.96875 C 514.097656 504.019531 500.171875 517.855469 485.039062 530.273438 L 536.210938 581.445312 C 539.453125 572.140625 544.78125 563.410156 552.203125 555.988281 L 553.632812 554.558594 C 560.378906 547.8125 568.328125 542.691406 577 539.351562 Z M 577 539.351562 " fill-opacity="1" fill-rule="nonzero"/><g clip-path="url(#bb880c11a7)"><path fill="#434852" d="M 634.464844 569.332031 C 625.6875 560.554688 613.957031 555.722656 601.4375 555.722656 C 588.917969 555.722656 577.1875 560.554688 568.410156 569.332031 L 566.980469 570.761719 C 558.203125 579.539062 553.371094 591.269531 553.371094 603.789062 C 553.371094 616.308594 558.203125 628.039062 566.980469 636.820312 L 718.800781 788.636719 C 727.578125 797.414062 739.308594 802.246094 751.828125 802.246094 C 764.347656 802.246094 776.078125 797.414062 784.855469 788.636719 L 786.285156 787.207031 C 804.496094 768.996094 804.496094 739.363281 786.285156 721.152344 Z M 634.464844 569.332031 " fill-opacity="1" fill-rule="nonzero"/></g></svg>