<svg xmlns="http://www.w3.org/2000/svg" xmlns:xlink="http://www.w3.org/1999/xlink" width="1080" zoomAndPan="magnify" viewBox="0 0 810 809.999993" height="1080" preserveAspectRatio="xMidYMid meet" version="1.0"><path fill="#434852" d="M 810 510.300781 L 810 646.179688 C 809.996094 648.03125 809.949219 649.878906 809.859375 651.730469 C 809.765625 653.578125 809.625 655.425781 809.445312 657.265625 C 809.261719 659.109375 809.03125 660.945312 808.757812 662.777344 C 808.484375 664.609375 808.167969 666.433594 807.804688 668.25 C 807.441406 670.0625 807.035156 671.871094 806.582031 673.664062 C 806.132812 675.460938 805.636719 677.246094 805.097656 679.015625 C 804.558594 680.789062 803.976562 682.546875 803.351562 684.289062 C 802.726562 686.03125 802.0625 687.757812 801.351562 689.46875 C 800.640625 691.179688 799.890625 692.871094 799.097656 694.542969 C 798.304688 696.21875 797.472656 697.871094 796.597656 699.503906 C 795.726562 701.136719 794.8125 702.746094 793.859375 704.332031 C 792.90625 705.921875 791.917969 707.484375 790.886719 709.023438 C 789.859375 710.5625 788.792969 712.078125 787.6875 713.5625 C 786.585938 715.050781 785.445312 716.507812 784.269531 717.941406 C 783.097656 719.371094 781.886719 720.773438 780.644531 722.144531 C 779.398438 723.515625 778.125 724.855469 776.8125 726.167969 C 775.503906 727.476562 774.164062 728.753906 772.792969 729.996094 C 771.421875 731.238281 770.019531 732.449219 768.585938 733.625 C 767.15625 734.796875 765.695312 735.9375 764.210938 737.039062 C 762.722656 738.144531 761.210938 739.210938 759.671875 740.238281 C 758.132812 741.269531 756.566406 742.257812 754.980469 743.210938 C 753.390625 744.164062 751.78125 745.078125 750.148438 745.949219 C 748.515625 746.824219 746.863281 747.65625 745.191406 748.449219 C 743.515625 749.242188 741.824219 749.992188 740.113281 750.703125 C 738.402344 751.410156 736.675781 752.078125 734.933594 752.703125 C 733.191406 753.328125 731.433594 753.910156 729.664062 754.449219 C 727.890625 754.988281 726.105469 755.480469 724.3125 755.933594 C 722.515625 756.382812 720.710938 756.789062 718.894531 757.152344 C 717.078125 757.515625 715.253906 757.835938 713.421875 758.105469 C 711.59375 758.378906 709.753906 758.609375 707.914062 758.792969 C 706.070312 758.976562 704.222656 759.113281 702.375 759.207031 C 700.527344 759.296875 698.675781 759.347656 696.824219 759.347656 L 113.175781 759.347656 C 111.324219 759.347656 109.472656 759.296875 107.625 759.207031 C 105.777344 759.113281 103.929688 758.976562 102.085938 758.792969 C 100.246094 758.609375 98.40625 758.378906 96.578125 758.105469 C 94.746094 757.835938 92.921875 757.515625 91.105469 757.152344 C 89.289062 756.789062 87.484375 756.382812 85.6875 755.933594 C 83.894531 755.480469 82.109375 754.988281 80.335938 754.449219 C 78.566406 753.910156 76.808594 753.328125 75.066406 752.703125 C 73.324219 752.078125 71.597656 751.410156 69.886719 750.703125 C 68.175781 749.992188 66.484375 749.242188 64.808594 748.449219 C 63.136719 747.65625 61.484375 746.824219 59.851562 745.949219 C 58.21875 745.078125 56.609375 744.164062 55.019531 743.210938 C 53.433594 742.257812 51.867188 741.269531 50.328125 740.238281 C 48.789062 739.210938 47.277344 738.144531 45.789062 737.039062 C 44.300781 735.9375 42.84375 734.796875 41.414062 733.625 C 39.980469 732.449219 38.578125 731.238281 37.207031 729.996094 C 35.835938 728.753906 34.496094 727.476562 33.1875 726.167969 C 31.875 724.855469 30.601562 723.515625 29.355469 722.144531 C 28.113281 720.773438 26.902344 719.371094 25.730469 717.941406 C 24.554688 716.507812 23.414062 715.050781 22.3125 713.5625 C 21.207031 712.078125 20.140625 710.5625 19.113281 709.023438 C 18.082031 707.484375 17.09375 705.921875 16.140625 704.332031 C 15.1875 702.746094 14.273438 701.136719 13.402344 699.503906 C 12.527344 697.871094 11.695312 696.21875 10.902344 694.542969 C 10.109375 692.871094 9.359375 691.179688 8.648438 689.46875 C 7.9375 687.757812 7.273438 686.03125 6.648438 684.289062 C 6.023438 682.546875 5.441406 680.789062 4.902344 679.015625 C 4.363281 677.246094 3.867188 675.460938 3.417969 673.664062 C 2.964844 671.871094 2.558594 670.0625 2.195312 668.25 C 1.832031 666.433594 1.515625 664.609375 1.242188 662.777344 C 0.96875 660.945312 0.738281 659.109375 0.554688 657.265625 C 0.375 655.425781 0.234375 653.578125 0.140625 651.730469 C 0.0507812 649.878906 0.00390625 648.03125 0 646.179688 L 0 510.300781 C 0 509.15625 0.0546875 508.015625 0.167969 506.878906 C 0.277344 505.738281 0.445312 504.609375 0.667969 503.488281 C 0.890625 502.367188 1.167969 501.257812 1.5 500.164062 C 1.832031 499.070312 2.214844 497.992188 2.652344 496.9375 C 3.089844 495.878906 3.578125 494.847656 4.117188 493.839844 C 4.65625 492.828125 5.246094 491.847656 5.878906 490.898438 C 6.515625 489.945312 7.195312 489.03125 7.921875 488.144531 C 8.644531 487.261719 9.414062 486.414062 10.222656 485.605469 C 11.03125 484.796875 11.875 484.03125 12.761719 483.304688 C 13.644531 482.578125 14.5625 481.898438 15.511719 481.261719 C 16.464844 480.625 17.445312 480.039062 18.453125 479.5 C 19.460938 478.960938 20.492188 478.472656 21.550781 478.035156 C 22.605469 477.597656 23.683594 477.210938 24.777344 476.878906 C 25.871094 476.546875 26.980469 476.269531 28.101562 476.046875 C 29.222656 475.824219 30.351562 475.65625 31.492188 475.542969 C 32.628906 475.429688 33.769531 475.375 34.914062 475.375 C 36.058594 475.375 37.199219 475.429688 38.335938 475.542969 C 39.476562 475.65625 40.605469 475.824219 41.726562 476.046875 C 42.847656 476.269531 43.957031 476.546875 45.050781 476.878906 C 46.144531 477.210938 47.21875 477.597656 48.277344 478.035156 C 49.332031 478.472656 50.367188 478.960938 51.375 479.5 C 52.382812 480.039062 53.363281 480.625 54.3125 481.261719 C 55.265625 481.898438 56.183594 482.578125 57.066406 483.304688 C 57.949219 484.03125 58.796875 484.796875 59.605469 485.605469 C 60.414062 486.414062 61.179688 487.261719 61.90625 488.144531 C 62.632812 489.03125 63.3125 489.945312 63.949219 490.898438 C 64.582031 491.847656 65.167969 492.828125 65.707031 493.839844 C 66.246094 494.847656 66.734375 495.878906 67.171875 496.9375 C 67.609375 497.992188 67.996094 499.070312 68.328125 500.164062 C 68.660156 501.257812 68.9375 502.367188 69.160156 503.488281 C 69.382812 504.609375 69.546875 505.738281 69.660156 506.878906 C 69.773438 508.015625 69.828125 509.15625 69.828125 510.300781 L 69.828125 640.070312 C 69.828125 641.6875 69.910156 643.304688 70.070312 644.914062 C 70.230469 646.523438 70.472656 648.125 70.789062 649.710938 C 71.105469 651.300781 71.5 652.867188 71.972656 654.417969 C 72.441406 655.964844 72.988281 657.488281 73.609375 658.984375 C 74.230469 660.480469 74.921875 661.941406 75.6875 663.367188 C 76.449219 664.796875 77.28125 666.183594 78.183594 667.53125 C 79.082031 668.875 80.046875 670.175781 81.074219 671.425781 C 82.101562 672.675781 83.1875 673.875 84.332031 675.019531 C 85.476562 676.164062 86.675781 677.25 87.929688 678.277344 C 89.179688 679.304688 90.476562 680.269531 91.824219 681.167969 C 93.171875 682.066406 94.558594 682.898438 95.984375 683.664062 C 97.414062 684.429688 98.875 685.121094 100.371094 685.742188 C 101.867188 686.359375 103.386719 686.90625 104.9375 687.378906 C 106.484375 687.847656 108.054688 688.242188 109.640625 688.558594 C 111.230469 688.878906 112.828125 689.117188 114.441406 689.277344 C 116.050781 689.4375 117.667969 689.519531 119.285156 689.519531 L 690.714844 689.519531 C 692.332031 689.519531 693.949219 689.4375 695.558594 689.277344 C 697.171875 689.117188 698.769531 688.878906 700.355469 688.558594 C 701.945312 688.242188 703.511719 687.847656 705.0625 687.378906 C 706.613281 686.90625 708.132812 686.359375 709.628906 685.742188 C 711.125 685.121094 712.585938 684.429688 714.015625 683.664062 C 715.441406 682.898438 716.828125 682.070312 718.175781 681.167969 C 719.523438 680.269531 720.820312 679.304688 722.070312 678.277344 C 723.324219 677.25 724.523438 676.164062 725.667969 675.019531 C 726.8125 673.875 727.898438 672.675781 728.925781 671.425781 C 729.953125 670.175781 730.917969 668.875 731.816406 667.53125 C 732.71875 666.183594 733.550781 664.796875 734.3125 663.367188 C 735.078125 661.941406 735.769531 660.480469 736.390625 658.984375 C 737.011719 657.488281 737.558594 655.964844 738.027344 654.417969 C 738.5 652.867188 738.894531 651.300781 739.210938 649.710938 C 739.527344 648.125 739.769531 646.523438 739.929688 644.914062 C 740.089844 643.304688 740.171875 641.6875 740.171875 640.070312 L 740.171875 510.300781 C 740.171875 509.15625 740.230469 508.015625 740.339844 506.878906 C 740.453125 505.742188 740.621094 504.609375 740.84375 503.488281 C 741.066406 502.367188 741.34375 501.261719 741.675781 500.167969 C 742.007812 499.070312 742.394531 497.996094 742.832031 496.941406 C 743.269531 495.882812 743.757812 494.851562 744.296875 493.84375 C 744.835938 492.835938 745.421875 491.855469 746.054688 490.902344 C 746.691406 489.953125 747.371094 489.035156 748.097656 488.152344 C 748.824219 487.269531 749.589844 486.421875 750.398438 485.613281 C 751.207031 484.804688 752.054688 484.039062 752.9375 483.3125 C 753.820312 482.585938 754.738281 481.90625 755.6875 481.269531 C 756.640625 480.636719 757.621094 480.050781 758.628906 479.511719 C 759.636719 478.972656 760.667969 478.484375 761.726562 478.046875 C 762.78125 477.605469 763.855469 477.222656 764.953125 476.890625 C 766.046875 476.558594 767.152344 476.28125 768.273438 476.058594 C 769.398438 475.835938 770.527344 475.667969 771.664062 475.554688 C 772.800781 475.445312 773.941406 475.386719 775.085938 475.386719 C 776.230469 475.386719 777.371094 475.445312 778.507812 475.554688 C 779.644531 475.667969 780.777344 475.835938 781.898438 476.058594 C 783.019531 476.28125 784.128906 476.558594 785.222656 476.890625 C 786.316406 477.222656 787.390625 477.605469 788.445312 478.046875 C 789.503906 478.484375 790.535156 478.972656 791.542969 479.511719 C 792.554688 480.050781 793.53125 480.636719 794.484375 481.269531 C 795.433594 481.90625 796.351562 482.585938 797.234375 483.3125 C 798.121094 484.039062 798.964844 484.804688 799.773438 485.613281 C 800.582031 486.421875 801.347656 487.269531 802.074219 488.152344 C 802.800781 489.035156 803.480469 489.953125 804.117188 490.902344 C 804.75 491.855469 805.339844 492.835938 805.878906 493.84375 C 806.417969 494.851562 806.90625 495.882812 807.34375 496.941406 C 807.78125 497.996094 808.164062 499.070312 808.496094 500.167969 C 808.828125 501.261719 809.105469 502.367188 809.328125 503.488281 C 809.550781 504.609375 809.71875 505.742188 809.832031 506.878906 C 809.945312 508.015625 810 509.15625 810 510.300781 Z M 292.59375 261.800781 L 359.039062 195.355469 C 359.527344 194.867188 360.074219 194.457031 360.683594 194.132812 C 361.292969 193.808594 361.9375 193.578125 362.613281 193.441406 C 363.292969 193.308594 363.972656 193.273438 364.660156 193.34375 C 365.347656 193.410156 366.011719 193.574219 366.648438 193.839844 C 367.285156 194.105469 367.871094 194.457031 368.40625 194.894531 C 368.941406 195.332031 369.398438 195.835938 369.78125 196.410156 C 370.164062 196.984375 370.457031 197.601562 370.65625 198.265625 C 370.859375 198.925781 370.957031 199.601562 370.957031 200.289062 L 370.957031 529.027344 C 370.957031 530.167969 371.015625 531.308594 371.125 532.449219 C 371.238281 533.585938 371.40625 534.714844 371.628906 535.835938 C 371.851562 536.957031 372.128906 538.066406 372.460938 539.160156 C 372.792969 540.253906 373.179688 541.332031 373.617188 542.386719 C 374.054688 543.445312 374.542969 544.476562 375.082031 545.484375 C 375.621094 546.492188 376.207031 547.472656 376.84375 548.421875 C 377.476562 549.375 378.160156 550.292969 378.882812 551.175781 C 379.609375 552.058594 380.375 552.90625 381.183594 553.714844 C 381.992188 554.523438 382.839844 555.289062 383.722656 556.015625 C 384.605469 556.742188 385.523438 557.421875 386.476562 558.054688 C 387.425781 558.691406 388.40625 559.277344 389.414062 559.816406 C 390.421875 560.355469 391.457031 560.84375 392.511719 561.28125 C 393.566406 561.71875 394.644531 562.105469 395.738281 562.4375 C 396.832031 562.769531 397.941406 563.046875 399.0625 563.269531 C 400.183594 563.492188 401.3125 563.660156 402.449219 563.773438 C 403.589844 563.882812 404.730469 563.941406 405.871094 563.941406 C 407.015625 563.941406 408.15625 563.882812 409.292969 563.773438 C 410.433594 563.660156 411.5625 563.492188 412.683594 563.269531 C 413.804688 563.046875 414.914062 562.769531 416.007812 562.4375 C 417.101562 562.105469 418.175781 561.71875 419.234375 561.28125 C 420.289062 560.84375 421.324219 560.355469 422.332031 559.816406 C 423.339844 559.277344 424.320312 558.691406 425.269531 558.054688 C 426.21875 557.421875 427.136719 556.742188 428.023438 556.015625 C 428.90625 555.289062 429.753906 554.523438 430.5625 553.714844 C 431.371094 552.90625 432.136719 552.058594 432.863281 551.175781 C 433.585938 550.292969 434.265625 549.375 434.902344 548.421875 C 435.539062 547.472656 436.125 546.492188 436.664062 545.484375 C 437.203125 544.476562 437.691406 543.445312 438.128906 542.386719 C 438.566406 541.332031 438.953125 540.253906 439.285156 539.160156 C 439.613281 538.066406 439.894531 536.957031 440.117188 535.835938 C 440.339844 534.714844 440.507812 533.585938 440.617188 532.449219 C 440.730469 531.308594 440.785156 530.167969 440.785156 529.027344 L 440.785156 202.035156 C 440.785156 201.347656 440.886719 200.671875 441.085938 200.007812 C 441.285156 199.347656 441.578125 198.730469 441.960938 198.15625 C 442.34375 197.582031 442.804688 197.078125 443.339844 196.636719 C 443.871094 196.199219 444.457031 195.847656 445.097656 195.585938 C 445.734375 195.324219 446.398438 195.164062 447.085938 195.097656 C 447.769531 195.03125 448.453125 195.066406 449.128906 195.199219 C 449.804688 195.335938 450.449219 195.566406 451.058594 195.886719 C 451.667969 196.210938 452.214844 196.613281 452.707031 197.101562 L 517.40625 261.800781 C 518.226562 262.585938 519.085938 263.328125 519.976562 264.03125 C 520.871094 264.734375 521.792969 265.394531 522.75 266.011719 C 523.703125 266.625 524.6875 267.195312 525.695312 267.714844 C 526.707031 268.238281 527.738281 268.710938 528.792969 269.132812 C 529.847656 269.554688 530.921875 269.925781 532.011719 270.25 C 533.101562 270.570312 534.203125 270.835938 535.320312 271.050781 C 536.433594 271.269531 537.558594 271.429688 538.691406 271.539062 C 539.820312 271.644531 540.953125 271.699219 542.089844 271.699219 C 543.226562 271.699219 544.363281 271.644531 545.492188 271.539062 C 546.625 271.429688 547.746094 271.269531 548.863281 271.050781 C 549.980469 270.835938 551.082031 270.570312 552.171875 270.25 C 553.261719 269.925781 554.335938 269.554688 555.390625 269.132812 C 556.445312 268.710938 557.476562 268.238281 558.484375 267.714844 C 559.496094 267.195312 560.476562 266.625 561.433594 266.011719 C 562.390625 265.394531 563.3125 264.734375 564.207031 264.03125 C 565.097656 263.328125 565.953125 262.585938 566.777344 261.800781 C 567.582031 260.988281 568.347656 260.144531 569.070312 259.257812 C 569.796875 258.375 570.476562 257.457031 571.109375 256.503906 C 571.742188 255.554688 572.328125 254.574219 572.867188 253.566406 C 573.402344 252.558594 573.890625 251.527344 574.328125 250.46875 C 574.765625 249.414062 575.148438 248.339844 575.480469 247.246094 C 575.808594 246.152344 576.085938 245.042969 576.308594 243.921875 C 576.53125 242.800781 576.699219 241.671875 576.8125 240.535156 C 576.921875 239.398438 576.980469 238.257812 576.980469 237.113281 C 576.980469 235.972656 576.921875 234.832031 576.8125 233.695312 C 576.699219 232.554688 576.53125 231.425781 576.308594 230.304688 C 576.085938 229.183594 575.808594 228.078125 575.480469 226.984375 C 575.148438 225.890625 574.765625 224.816406 574.328125 223.757812 C 573.890625 222.703125 573.402344 221.671875 572.867188 220.660156 C 572.328125 219.652344 571.742188 218.675781 571.109375 217.722656 C 570.476562 216.773438 569.796875 215.855469 569.070312 214.96875 C 568.347656 214.085938 567.582031 213.238281 566.777344 212.429688 L 405 50.652344 L 243.222656 212.429688 C 242.417969 213.238281 241.652344 214.085938 240.925781 214.96875 C 240.203125 215.855469 239.523438 216.773438 238.890625 217.722656 C 238.257812 218.675781 237.671875 219.652344 237.132812 220.660156 C 236.597656 221.671875 236.109375 222.703125 235.671875 223.757812 C 235.234375 224.816406 234.851562 225.890625 234.519531 226.984375 C 234.191406 228.078125 233.914062 229.183594 233.691406 230.304688 C 233.46875 231.425781 233.300781 232.554688 233.1875 233.695312 C 233.078125 234.832031 233.019531 235.972656 233.019531 237.113281 C 233.019531 238.257812 233.078125 239.398438 233.1875 240.535156 C 233.300781 241.671875 233.46875 242.800781 233.691406 243.921875 C 233.914062 245.042969 234.191406 246.152344 234.519531 247.246094 C 234.851562 248.339844 235.234375 249.414062 235.671875 250.46875 C 236.109375 251.527344 236.597656 252.558594 237.132812 253.566406 C 237.671875 254.574219 238.257812 255.554688 238.890625 256.503906 C 239.523438 257.457031 240.203125 258.375 240.929688 259.257812 C 241.652344 260.144531 242.417969 260.988281 243.222656 261.800781 C 244.046875 262.585938 244.902344 263.328125 245.792969 264.03125 C 246.6875 264.734375 247.609375 265.394531 248.566406 266.011719 C 249.523438 266.625 250.503906 267.195312 251.515625 267.714844 C 252.523438 268.238281 253.554688 268.710938 254.609375 269.132812 C 255.664062 269.554688 256.738281 269.925781 257.828125 270.25 C 258.917969 270.570312 260.019531 270.835938 261.136719 271.050781 C 262.253906 271.269531 263.375 271.429688 264.507812 271.539062 C 265.636719 271.644531 266.773438 271.699219 267.910156 271.699219 C 269.046875 271.699219 270.179688 271.644531 271.308594 271.539062 C 272.441406 271.429688 273.566406 271.269531 274.679688 271.050781 C 275.796875 270.835938 276.898438 270.570312 277.988281 270.25 C 279.078125 269.925781 280.152344 269.554688 281.207031 269.132812 C 282.261719 268.710938 283.292969 268.238281 284.304688 267.714844 C 285.3125 267.195312 286.296875 266.625 287.25 266.011719 C 288.207031 265.394531 289.128906 264.734375 290.023438 264.03125 C 290.914062 263.328125 291.773438 262.585938 292.59375 261.800781 Z M 292.59375 261.800781 " fill-opacity="1" fill-rule="nonzero"/></svg>