<svg xmlns="http://www.w3.org/2000/svg" xmlns:xlink="http://www.w3.org/1999/xlink" width="1080" zoomAndPan="magnify" viewBox="0 0 810 809.999993" height="1080" preserveAspectRatio="xMidYMid meet" version="1.0"><path fill="#434852" d="M 716.539062 186.921875 C 716.539062 186.921875 175.738281 186.921875 82.496094 186.921875 C 55.140625 186.921875 30.84375 181.441406 30.84375 155.769531 L 716.539062 124.617188 L 716.539062 62.308594 C 716.539062 10.71875 674.667969 0 623.078125 0 L 62.960938 93.460938 C 13.054688 104.550781 0 125.707031 0 155.769531 L 0 716.539062 C 0 768.128906 41.871094 810 93.460938 810 L 716.539062 810 C 768.128906 810 810 768.128906 810 716.539062 L 810 280.382812 C 810 228.792969 768.128906 186.921875 716.539062 186.921875 Z M 685.382812 560.769531 C 650.992188 560.769531 623.078125 532.855469 623.078125 498.460938 C 623.078125 464.066406 650.992188 436.152344 685.382812 436.152344 C 719.777344 436.152344 747.691406 464.066406 747.691406 498.460938 C 747.691406 532.855469 719.777344 560.769531 685.382812 560.769531 Z M 685.382812 560.769531 " fill-opacity="1" fill-rule="nonzero"/></svg>